<?xml version="1.0" encoding="utf-8"?>
<!-- Generator: Adobe Illustrator 14.0.0, SVG Export Plug-In . SVG Version: 6.00 Build 43363)  -->
<!DOCTYPE svg PUBLIC "-//W3C//DTD SVG 1.1//EN" "http://www.w3.org/Graphics/SVG/1.1/DTD/svg11.dtd">
<svg version="1.1" id="Layer_1" xmlns="http://www.w3.org/2000/svg" xmlns:xlink="http://www.w3.org/1999/xlink" x="0px" y="0px"
	 width="30px" height="30px" viewBox="0 0 30 30" enable-background="new 0 0 30 30" xml:space="preserve">
<g>
	<g>
		<path fill="#F5452B" d="M26,14c0,0.828-0.672,1.5-1.5,1.5h-19C4.671,15.5,4,14.828,4,14V5.5C4,4.671,4.671,4,5.5,4h19
			C25.328,4,26,4.671,26,5.5V14z"/>
		<rect x="12" y="6" fill="#FFFFFF" width="6" height="1"/>
		<path fill="#D8E1EF" d="M4,11v13.5C4,25.328,4.671,26,5.5,26H18l8-8v-7H4z"/>
		<g>
			<path fill="#8AA4D0" d="M9.132,20.33c0.238-0.566,0.801-1.166,1.688-1.799c0.77-0.551,1.268-0.945,1.494-1.184
				c0.348-0.371,0.521-0.777,0.521-1.219c0-0.359-0.1-0.658-0.299-0.896s-0.484-0.357-0.855-0.357c-0.508,0-0.854,0.189-1.037,0.568
				c-0.105,0.219-0.168,0.566-0.188,1.043H8.833c0.027-0.723,0.158-1.307,0.393-1.752c0.446-0.848,1.237-1.271,2.375-1.271
				c0.899,0,1.615,0.249,2.146,0.747s0.798,1.157,0.798,1.978c0,0.629-0.188,1.188-0.563,1.676
				c-0.247,0.324-0.652,0.686-1.215,1.084l-0.669,0.475c-0.418,0.297-0.705,0.512-0.859,0.645s-0.284,0.287-0.39,0.463h3.709V22
				H8.739C8.755,21.391,8.886,20.834,9.132,20.33z"/>
			<path fill="#8AA4D0" d="M15.678,18.35c0.215-0.387,0.531-0.678,0.946-0.873c-0.412-0.273-0.68-0.569-0.803-0.888
				s-0.185-0.616-0.185-0.894c0-0.617,0.233-1.144,0.698-1.579c0.466-0.436,1.124-0.653,1.974-0.653s1.508,0.218,1.973,0.653
				c0.467,0.436,0.699,0.962,0.699,1.579c0,0.277-0.062,0.575-0.185,0.894s-0.39,0.595-0.8,0.829
				c0.42,0.234,0.736,0.545,0.947,0.932c0.213,0.387,0.318,0.818,0.318,1.295c0,0.715-0.266,1.323-0.795,1.825
				s-1.27,0.753-2.22,0.753s-1.67-0.251-2.158-0.753c-0.489-0.502-0.733-1.11-0.733-1.825C15.354,19.168,15.462,18.736,15.678,18.35
				z M17.414,20.506c0.217,0.23,0.517,0.346,0.899,0.346s0.683-0.115,0.899-0.346s0.325-0.555,0.325-0.973
				c0-0.434-0.11-0.763-0.331-0.987s-0.519-0.337-0.894-0.337s-0.673,0.112-0.894,0.337s-0.331,0.554-0.331,0.987
				C17.089,19.951,17.197,20.275,17.414,20.506z M17.521,16.639c0.189,0.195,0.453,0.293,0.79,0.293c0.341,0,0.604-0.098,0.79-0.293
				s0.279-0.447,0.279-0.756c0-0.336-0.094-0.599-0.279-0.788s-0.449-0.284-0.79-0.284c-0.337,0-0.601,0.095-0.79,0.284
				c-0.19,0.189-0.285,0.452-0.285,0.788C17.235,16.191,17.33,16.443,17.521,16.639z"/>
		</g>
		<polygon fill="#6386C0" points="18,26 18,18 26,18 		"/>
	</g>
	<rect fill="none" width="30" height="30"/>
</g>
</svg>
