<?xml version="1.0" encoding="utf-8"?>
<!-- Generator: Adobe Illustrator 14.0.0, SVG Export Plug-In . SVG Version: 6.00 Build 43363)  -->
<!DOCTYPE svg PUBLIC "-//W3C//DTD SVG 1.1//EN" "http://www.w3.org/Graphics/SVG/1.1/DTD/svg11.dtd">
<svg version="1.1" id="Layer_1" xmlns="http://www.w3.org/2000/svg" xmlns:xlink="http://www.w3.org/1999/xlink" x="0px" y="0px"
	 width="30px" height="30px" viewBox="0 0 30 30" enable-background="new 0 0 30 30" xml:space="preserve">
<g>
	<g>
		<path fill="#6386C0" d="M15.562,26.405l1.737-1.737c0.362-0.362,0.845-0.562,1.358-0.562s0.996,0.2,1.359,0.562l0.59,0.591
			c0.194-0.059,0.786-0.34,2.123-1.677c1.333-1.334,1.615-1.925,1.675-2.121l-0.593-0.593c-0.743-0.747-0.743-1.964,0.002-2.715
			L25,16.969V12L15,2H6.5C5.671,2,5,2.671,5,3.5v23C5,27.328,5.671,28,6.5,28h8.524C14.956,27.433,15.129,26.841,15.562,26.405z"/>
		<path opacity="0.1" d="M23.814,18.153l1.188-1.187V12h-10l8.566,8.565C23.081,19.822,23.163,18.81,23.814,18.153z"/>
		<polygon fill="#B1C2DF" points="15,2 15,12 25,12 		"/>
		<path fill="#6EAD26" d="M25.174,20.815l-0.652-0.652c-0.357-0.359-0.357-0.942,0-1.303l1.739-1.738
			c0.359-0.359,0.943-0.359,1.302,0l0.652,0.652l0,0c1.318,1.319,1.737,5.212-2.172,9.121c-3.91,3.91-7.803,3.491-9.122,2.172l0,0
			l-0.651-0.65c-0.359-0.361-0.359-0.943,0-1.305l1.737-1.737c0.359-0.359,0.943-0.359,1.303,0l0.651,0.652
			c0.48,0.48,1.304,0.435,3.477-1.738C25.608,22.118,25.654,21.294,25.174,20.815z"/>
	</g>
	<rect fill="none" width="30" height="30"/>
</g>
</svg>
