<?xml version="1.0" encoding="utf-8"?>
<!-- Generator: Adobe Illustrator 14.0.0, SVG Export Plug-In . SVG Version: 6.00 Build 43363)  -->
<!DOCTYPE svg PUBLIC "-//W3C//DTD SVG 1.1//EN" "http://www.w3.org/Graphics/SVG/1.1/DTD/svg11.dtd">
<svg version="1.1" id="Layer_1" xmlns="http://www.w3.org/2000/svg" xmlns:xlink="http://www.w3.org/1999/xlink" x="0px" y="0px"
	 width="30px" height="30px" viewBox="0 0 30 30" enable-background="new 0 0 30 30" xml:space="preserve">
<g>
	<g>
		<path fill="#6386C0" d="M25,22c-3-1-7.958-2.25-5.79-4.607C21.173,15.258,22,11.803,22,9c0-3.866-3.134-7-7-7
			c-3.866,0-7,3.134-7,7c0,2.803,0.828,6.258,2.791,8.393C12.958,19.75,8,21,5,22c-1.572,0.523-3,1.343-3,3v1.5
			C2,27.328,2.671,28,3.5,28h23c0.828,0,1.5-0.672,1.5-1.5V25C28,23.343,26.572,22.523,25,22z"/>
		<path fill="#D8E1EF" d="M13.876,23.627c0.389,0.389,0.452,1.078,0.141,1.531L12.062,28h5.875l-1.954-2.842
			c-0.312-0.453-0.248-1.143,0.141-1.531l1.919-1.92C18.432,21.318,18.3,21,17.75,21h-5.5c-0.55,0-0.682,0.318-0.293,0.707
			L13.876,23.627z"/>
		<path opacity="0.1" d="M7.224,21.274c0.553,0.547,2.366,2.569,7.746,2.569c5.41,0,7.23-2.035,7.781-2.578
			c-2.642-0.895-5.215-2.053-3.541-3.873c0.094-0.102,0.173-0.221,0.262-0.328c-1.194,1.349-2.765,2.17-4.486,2.17
			c-1.637,0-3.134-0.747-4.304-1.979c0.039,0.044,0.07,0.095,0.109,0.138C12.47,19.219,9.874,20.379,7.224,21.274z"/>
	</g>
	<rect fill="none" width="30" height="30"/>
</g>
</svg>
