<?xml version="1.0" encoding="utf-8"?>
<!-- Generator: Adobe Illustrator 14.0.0, SVG Export Plug-In . SVG Version: 6.00 Build 43363)  -->
<!DOCTYPE svg PUBLIC "-//W3C//DTD SVG 1.1//EN" "http://www.w3.org/Graphics/SVG/1.1/DTD/svg11.dtd">
<svg version="1.1" id="Layer_1" xmlns="http://www.w3.org/2000/svg" xmlns:xlink="http://www.w3.org/1999/xlink" x="0px" y="0px"
	 width="30px" height="30px" viewBox="0 0 30 30" enable-background="new 0 0 30 30" xml:space="preserve">
<g>
	<g>
		<path fill="#6EAD26" d="M30,19v9.5c0,0.828-0.672,1.5-1.5,1.5h-11c-0.828,0-1.5-0.672-1.5-1.5v-15c0-0.829,0.672-1.5,1.5-1.5H23
			L30,19z"/>
		<path fill="#6386C0" d="M15,13.5c0-1.378,1.121-2.5,2.5-2.5h4.361C21.951,10.315,22,9.64,22,9c0-3.866-3.134-7-7-7
			c-3.866,0-7,3.134-7,7c0,2.803,0.828,6.258,2.791,8.393C12.958,19.75,8,21,5,22c-1.572,0.523-3,1.343-3,3v1.5
			C2,27.328,2.671,28,3.5,28H15V13.5z"/>
		<path fill="#FFFFFF" d="M28,19v-0.8c0-1.215-0.985-2.2-2.2-2.2H24v-2h-2v2h-1c-1.657,0-3,1.343-3,3s1.343,3,3,3h1v2h-1.8
			c-0.11,0-0.2-0.09-0.2-0.2V23h-2v0.8c0,1.215,0.985,2.2,2.2,2.2H22v1v1h2v-1v-1h1c1.657,0,3-1.343,3-3s-1.343-3-3-3h-1v-2h1.8
			c0.11,0,0.2,0.09,0.2,0.2V19H28z M25.001,22C25.552,22,26,22.448,26,22.999C26,23.552,25.552,24,25.001,24H24v-2H25.001z M22,20
			h-1.001C20.448,20,20,19.552,20,19.001C20,18.448,20.448,18,20.999,18H22V20z"/>
		<polygon fill="#B6D692" points="23,12 30,19 23,19 		"/>
		<polygon opacity="0.1" points="30,26 23,19 30,19 		"/>
		<path opacity="0.1" d="M15,19.233c-0.005,0-0.01,0.001-0.015,0.001c-1.637,0-3.134-0.747-4.304-1.979
			c0.039,0.044,0.07,0.095,0.109,0.138c1.679,1.826-0.917,2.986-3.567,3.882c0.553,0.547,2.366,2.569,7.746,2.569
			c0.011,0,0.02-0.001,0.03-0.001V19.233z"/>
	</g>
	<rect fill="none" width="30" height="30"/>
</g>
</svg>
