<?xml version="1.0" encoding="utf-8"?>
<!-- Generator: Adobe Illustrator 17.1.0, SVG Export Plug-In . SVG Version: 6.00 Build 0)  -->
<!DOCTYPE svg PUBLIC "-//W3C//DTD SVG 1.1//EN" "http://www.w3.org/Graphics/SVG/1.1/DTD/svg11.dtd">
<svg version="1.1" id="Layer_1" xmlns="http://www.w3.org/2000/svg" xmlns:xlink="http://www.w3.org/1999/xlink" x="0px" y="0px"
	 viewBox="0 0 30 30" enable-background="new 0 0 30 30" xml:space="preserve">
<g>
	<path fill="#6386C0" d="M15,26.9c-1.1-0.2-2-1.2-2-2.4v-8c0-1.4,1.1-2.5,2.5-2.5H25v-2L15,2H6.5C5.7,2,5,2.7,5,3.5v23
		C5,27.3,5.7,28,6.5,28H15V26.9z"/>
	<polygon fill="#B1C2DF" points="15,2 15,12 25,12 	"/>
	<polygon opacity="0.1" points="25,14 25,12 15,12 17,14 	"/>
	<path fill="#6EAD26" d="M28.5,15h-13c-0.8,0-1.5,0.7-1.5,1.5v8c0,0.8,0.7,1.5,1.5,1.5H16v4l4-4h8.5c0.8,0,1.5-0.7,1.5-1.5v-8
		C30,15.7,29.3,15,28.5,15z"/>
	<rect x="16" y="18" fill="#FFFFFF" width="11" height="1"/>
	<rect x="16" y="20" fill="#FFFFFF" width="8" height="1"/>
	<rect x="16" y="22" fill="#FFFFFF" width="10" height="1"/>
</g>
<rect fill="none" width="30" height="30"/>
</svg>
