<?xml version="1.0" encoding="utf-8"?>
<!-- Generator: Adobe Illustrator 17.1.0, SVG Export Plug-In . SVG Version: 6.00 Build 0)  -->
<!DOCTYPE svg PUBLIC "-//W3C//DTD SVG 1.1//EN" "http://www.w3.org/Graphics/SVG/1.1/DTD/svg11.dtd">
<svg version="1.1" id="Layer_1" xmlns="http://www.w3.org/2000/svg" xmlns:xlink="http://www.w3.org/1999/xlink" x="0px" y="0px"
	 width="30px" height="30px" viewBox="0 0 30 30" enable-background="new 0 0 30 30" xml:space="preserve">
<g>
	<circle fill="#404040" cx="23" cy="23" r="7"/>
	<g>
		<path fill="#FFD43D" d="M21.2,18.7c0.5-0.3,1-0.4,1.7-0.4c0.9,0,1.6,0.2,2.2,0.6s0.9,1,0.9,1.9c0,0.5-0.1,0.9-0.4,1.3
			c-0.1,0.2-0.4,0.5-0.9,0.8l-0.4,0.3c-0.2,0.2-0.4,0.4-0.4,0.6c0,0.1-0.1,0.4-0.1,0.7h-1.6c0-0.7,0.1-1.1,0.2-1.4
			c0.1-0.3,0.4-0.5,0.8-0.9l0.4-0.3c0.1-0.1,0.3-0.2,0.3-0.3c0.2-0.2,0.2-0.5,0.2-0.7c0-0.3-0.1-0.6-0.3-0.8c-0.2-0.2-0.5-0.4-1-0.4
			c-0.5,0-0.8,0.2-1,0.5c-0.2,0.3-0.3,0.6-0.3,0.9h-1.7C20.1,20,20.5,19.2,21.2,18.7z M22.2,26h1.8v1.7h-1.8V26z"/>
	</g>
	<path fill="#6386C0" d="M15,23c0-3.6,2.3-6.6,5.6-7.6c1-2,1.4-4.3,1.4-6.4c0-3.9-3.1-7-7-7c-3.9,0-7,3.1-7,7c0,2.8,0.8,6.3,2.8,8.4
		C13,19.8,8,21,5,22c-1.6,0.5-3,1.3-3,3v1.5C2,27.3,2.7,28,3.5,28h13.3C15.7,26.6,15,24.9,15,23z"/>
	<path opacity="0.1" d="M15,23c0-1.4,0.4-2.7,1-3.9c-0.3,0.1-0.7,0.1-1,0.1c-1.6,0-3.1-0.7-4.3-2c0,0,0.1,0.1,0.1,0.1
		c1.7,1.8-0.9,3-3.6,3.9c0.6,0.5,2.4,2.6,7.7,2.6c0,0,0,0,0.1,0C15,23.6,15,23.3,15,23z"/>
</g>
<rect fill="none" width="30" height="30"/>
</svg>
