<?xml version="1.0" encoding="utf-8"?>
<!-- Generator: Adobe Illustrator 14.0.0, SVG Export Plug-In . SVG Version: 6.00 Build 43363)  -->
<!DOCTYPE svg PUBLIC "-//W3C//DTD SVG 1.1//EN" "http://www.w3.org/Graphics/SVG/1.1/DTD/svg11.dtd">
<svg version="1.1" id="Layer_1" xmlns="http://www.w3.org/2000/svg" xmlns:xlink="http://www.w3.org/1999/xlink" x="0px" y="0px"
	 width="30px" height="30px" viewBox="0 0 30 30" enable-background="new 0 0 30 30" xml:space="preserve">
<g>
	<g>
		<path fill="#6386C0" d="M15.124,25.21l0.076-0.209l0.157-0.156l7.572-7.572l0.001-0.001h-0.001l0.707-0.707l1.362-1.362V12l-10-10
			h-8.5c-0.829,0-1.5,0.671-1.5,1.5v23c0,0.828,0.671,1.5,1.5,1.5h7.61L15.124,25.21z"/>
		<rect x="7.998" y="9" fill="#D8E1EF" width="9" height="1"/>
		<rect x="7.998" y="14" fill="#D8E1EF" width="12" height="1"/>
		<rect x="7.998" y="17" fill="#D8E1EF" width="9" height="1"/>
		<rect x="7.998" y="20" fill="#D8E1EF" width="7" height="1"/>
		<polygon fill="#B1C2DF" points="14.998,2 14.998,12 24.998,12 		"/>
		
			<rect x="25.172" y="15.271" transform="matrix(0.7072 -0.707 0.707 0.7072 -4.2559 24.2668)" fill="#FAA295" width="4" height="4.001"/>
		<polygon fill="#FFD43D" points="16.063,25.552 14.443,30 18.892,28.38 26.465,20.808 23.636,17.979 		"/>
		<polygon opacity="0.1" points="22.929,17.272 22.93,17.271 22.929,17.271 23.636,16.564 25,15.201 25,12 15,12 21.601,18.601 		
			"/>
	</g>
	<rect fill="none" width="30" height="30"/>
</g>
</svg>
