<?xml version="1.0" encoding="utf-8"?>
<!-- Generator: Adobe Illustrator 14.0.0, SVG Export Plug-In . SVG Version: 6.00 Build 43363)  -->
<!DOCTYPE svg PUBLIC "-//W3C//DTD SVG 1.1//EN" "http://www.w3.org/Graphics/SVG/1.1/DTD/svg11.dtd">
<svg version="1.1" id="Layer_1" xmlns="http://www.w3.org/2000/svg" xmlns:xlink="http://www.w3.org/1999/xlink" x="0px" y="0px"
	 width="30px" height="30px" viewBox="0 0 30 30" enable-background="new 0 0 30 30" xml:space="preserve">
<g>
	<g>
		<g>
			<path fill="#B1C2DF" d="M25.692,18.385c-2.308-0.77-6.122-1.73-4.454-3.545c1.51-1.641,2.146-4.299,2.146-6.455
				C23.385,5.411,20.974,3,18,3s-5.385,2.411-5.385,5.385c0,2.156,0.637,4.814,2.146,6.455c1.539,1.675-1.589,2.622-3.895,3.363
				c0.081,0.101,0.16,0.198,0.25,0.319c0.481,0.648,0.525,1.701,0.32,2.446c-0.218,0.794-0.749,1.481-1.459,1.897
				C9.884,22.921,9.782,22.955,9.684,23h17.162C27.483,23,28,22.483,28,21.846v-1.153C28,19.418,26.901,18.787,25.692,18.385z"/>
			<path fill="#9AB0D6" d="M12.018,17.826c0.426,0.421,1.82,1.977,5.958,1.977c4.162,0,5.562-1.565,5.985-1.983
				c-2.031-0.688-4.011-1.579-2.724-2.979c0.072-0.078,0.133-0.169,0.201-0.252c-0.918,1.037-2.126,1.67-3.451,1.67
				c-1.259,0-2.41-0.575-3.311-1.523c0.03,0.034,0.054,0.073,0.084,0.105C16.054,16.245,14.057,17.138,12.018,17.826z"/>
		</g>
		<g>
			<g>
				<path fill="#6386C0" d="M19.692,22.385c-2.308-0.77-6.122-1.73-4.454-3.545c1.51-1.641,2.146-4.299,2.146-6.455
					C17.385,9.411,14.974,7,12,7s-5.385,2.411-5.385,5.385c0,2.156,0.637,4.814,2.146,6.455c1.668,1.814-2.146,2.775-4.454,3.545
					C3.099,22.787,2,23.418,2,24.692v1.153C2,26.483,2.517,27,3.154,27h17.692C21.483,27,22,26.483,22,25.846v-1.153
					C22,23.418,20.901,22.787,19.692,22.385z"/>
			</g>
			<path opacity="0.1" d="M6.018,21.826c0.426,0.421,1.82,1.977,5.958,1.977c4.162,0,5.562-1.565,5.985-1.983
				c-2.031-0.688-4.011-1.579-2.724-2.979c0.072-0.078,0.133-0.169,0.201-0.252c-0.918,1.037-2.126,1.67-3.451,1.67
				c-1.259,0-2.411-0.575-3.311-1.523c0.03,0.034,0.054,0.073,0.084,0.105C10.054,20.245,8.057,21.138,6.018,21.826z"/>
		</g>
	</g>
	<rect fill="none" width="30" height="30"/>
</g>
</svg>
