<?xml version="1.0" encoding="utf-8"?>
<!-- Generator: Adobe Illustrator 17.1.0, SVG Export Plug-In . SVG Version: 6.00 Build 0)  -->
<!DOCTYPE svg PUBLIC "-//W3C//DTD SVG 1.1//EN" "http://www.w3.org/Graphics/SVG/1.1/DTD/svg11.dtd">
<svg version="1.1" id="Layer_1" xmlns="http://www.w3.org/2000/svg" xmlns:xlink="http://www.w3.org/1999/xlink" x="0px" y="0px"
	 viewBox="0 0 30 30" enable-background="new 0 0 30 30" xml:space="preserve">
<path fill="#FFD43D" d="M29.5,22.3c-0.7-0.4-1.4-1-1.5-1.4c-0.2-0.4-0.1-1.3,0.1-2.1c0.1-0.4,0.1-0.7-0.1-0.9
	c-0.2-0.2-0.5-0.2-0.9-0.1c-0.8,0.3-1.7,0.3-2.1,0.1c-0.4-0.2-1-0.8-1.4-1.5C23.5,16.2,23.2,16,23,16s-0.5,0.2-0.7,0.5
	c-0.4,0.7-1,1.4-1.4,1.5c-0.4,0.2-1.3,0.1-2.1-0.1c-0.4-0.1-0.7-0.1-0.9,0.1c-0.2,0.2-0.2,0.5-0.1,0.9c0.3,0.8,0.3,1.7,0.1,2.1
	c-0.2,0.4-0.8,1-1.5,1.4C16.2,22.5,16,22.8,16,23c0,0.2,0.2,0.5,0.5,0.7c0.7,0.4,1.4,1,1.5,1.4c0.2,0.4,0.1,1.3-0.1,2.1
	c-0.1,0.4-0.1,0.7,0.1,0.9c0.2,0.2,0.5,0.2,0.9,0.1c0.8-0.3,1.7-0.3,2.1-0.1c0.4,0.2,1,0.8,1.4,1.5c0.2,0.4,0.4,0.5,0.7,0.5
	s0.5-0.2,0.7-0.5c0.4-0.7,1-1.4,1.4-1.5c0.4-0.2,1.3-0.1,2.1,0.1c0.4,0.1,0.7,0.1,0.9-0.1c0.2-0.2,0.2-0.5,0.1-0.9
	c-0.3-0.8-0.3-1.7-0.1-2.1c0.2-0.4,0.8-1,1.5-1.4c0.4-0.2,0.5-0.4,0.5-0.7C30,22.8,29.8,22.5,29.5,22.3z"/>
<path fill="#6386C0" d="M17,26.8c0.2-0.6,0.2-1.1,0.2-1.3c-0.1-0.2-0.5-0.6-1.1-0.9C15.4,24.2,15,23.6,15,23c0-0.6,0.4-1.2,1.1-1.6
	c0.5-0.3,1-0.7,1.1-0.9c0-0.2,0-0.8-0.2-1.3c-0.2-0.7-0.1-1.4,0.3-1.9c0.3-0.3,0.7-0.4,1.1-0.4c0.2,0,0.5,0,0.7,0.1
	c0.1,0,0.2,0,0.2,0.1C21.2,14.9,22,11.7,22,9c0-3.9-3.1-7-7-7c-3.9,0-7,3.1-7,7c0,2.8,0.8,6.3,2.8,8.4C13,19.8,8,21,5,22
	c-1.6,0.5-3,1.3-3,3v1.5C2,27.3,2.7,28,3.5,28H17C16.9,27.6,16.9,27.2,17,26.8z"/>
<g>
	<path opacity="0.1" d="M19.5,17.1C19.5,17.1,19.5,17.1,19.5,17.1C19.5,17.1,19.5,17.1,19.5,17.1C19.5,17.1,19.5,17.1,19.5,17.1z"/>
	<path opacity="0.1" d="M15,23c0-0.6,0.4-1.2,1.1-1.6c0.5-0.3,1-0.7,1.1-0.9c0-0.2,0-0.8-0.2-1.3c0-0.1-0.1-0.2-0.1-0.4
		c-0.6,0.2-1.3,0.4-2,0.4c-1.6,0-3.1-0.7-4.3-2c0,0,0.1,0.1,0.1,0.1c1.7,1.8-0.9,3-3.6,3.9c0.6,0.5,2.4,2.6,7.7,2.6
		c0.1,0,0.2,0,0.3,0C15.1,23.6,15,23.3,15,23z"/>
</g>
<rect fill="none" width="30" height="30"/>
</svg>
