<?xml version="1.0" encoding="utf-8"?>
<!-- Generator: Adobe Illustrator 17.1.0, SVG Export Plug-In . SVG Version: 6.00 Build 0)  -->
<!DOCTYPE svg PUBLIC "-//W3C//DTD SVG 1.1//EN" "http://www.w3.org/Graphics/SVG/1.1/DTD/svg11.dtd">
<svg version="1.1" id="Layer_1" xmlns="http://www.w3.org/2000/svg" xmlns:xlink="http://www.w3.org/1999/xlink" x="0px" y="0px"
	 viewBox="0 0 30 30" enable-background="new 0 0 30 30" xml:space="preserve">
<g>
	<g>
		<path fill="#707070" d="M28,15l-0.4,0.4l-1-1L27,14l-2-2c-2.7-2.7-6.7-3.4-10-2v1c2.5,0,4.2,1.3,5.9,2.9l-4,4l2.1,2.1l4-4L24,17
			l0.4-0.4l1,1L25,18l2,2l3-3L28,15z"/>
		<g>
			<g>
				<path fill="#EDA133" d="M7.5,24h1.1l8.7-8.7c0.2-0.2,0.4-0.3,0.7-0.3c0.1,0,0.3,0,0.4,0.1l1.1-1.1c-1.4-1.3-2.7-2-4.5-2
					c-0.6,0-1-0.4-1-1v-1c0-0.4,0.2-0.8,0.6-0.9c0.1,0,0.1,0,0.2-0.1H7.5C6.7,9,6,9.7,6,10.5v12C6,23.3,6.7,24,7.5,24z"/>
			</g>
			<g>
				<path fill="#EDA133" d="M23.8,9.8C23.6,9.3,23.1,9,22.5,9h-0.3C22.8,9.2,23.3,9.5,23.8,9.8z"/>
			</g>
			<g>
				<path fill="#EDA133" d="M23.1,17.5l-1.1,1.1c0.2,0.4,0.1,0.8-0.2,1.1L17.4,24h5.1c0.8,0,1.5-0.7,1.5-1.5V18
					c-0.3,0-0.5-0.1-0.7-0.3L23.1,17.5z"/>
			</g>
		</g>
		
			<rect x="11.9" y="15.2" transform="matrix(0.7071 0.7071 -0.7071 0.7071 20.364 -3.163)" fill="#404040" width="4.2" height="15.6"/>
		<path fill="#FFD43D" d="M15,12c-0.6,0-1-0.4-1-1v-1c0-0.4,0.2-0.8,0.6-0.9c1.2-0.5,2.5-0.8,3.9-0.8c0,0,0,0,0,0
			c2.4,0,4.7,0.8,6.5,2.3V7.5C25,6.7,24.3,6,23.5,6h-17C5.7,6,5,6.7,5,7.5V13h13.2C17.2,12.4,16.2,12,15,12z"/>
		<path fill="#FFE99E" d="M17,12.4c-0.6-0.2-1.3-0.4-2-0.4c-0.6,0-1-0.4-1-1v-1c0-0.4,0.2-0.8,0.6-0.9c0.8-0.3,1.6-0.5,2.4-0.6V6h-4
			v7h4V12.4z"/>
		<polygon fill="#F1B866" points="17,15.6 17,13 13,13 13,19.6 		"/>
	</g>
	<rect fill="none" width="30" height="30"/>
</g>
</svg>
