<?xml version="1.0" encoding="utf-8"?>
<!-- Generator: Adobe Illustrator 14.0.0, SVG Export Plug-In . SVG Version: 6.00 Build 43363)  -->
<!DOCTYPE svg PUBLIC "-//W3C//DTD SVG 1.1//EN" "http://www.w3.org/Graphics/SVG/1.1/DTD/svg11.dtd">
<svg version="1.1" id="Layer_1" xmlns="http://www.w3.org/2000/svg" xmlns:xlink="http://www.w3.org/1999/xlink" x="0px" y="0px"
	 width="30px" height="30px" viewBox="0 0 30 30" enable-background="new 0 0 30 30" xml:space="preserve">
<g>
	<g>
		<path fill="#F77360" d="M15,5c0,0.553,0.896,1,2,1h11l-4,7l4,7H17c-1.104,0-2-0.447-2-1V5z"/>
		<path fill="#F5452B" d="M19,17c0,0.553-0.896,1-2,1c-1.105,0-2,0.447-2,1v-6h4V17z"/>
		<path fill="#FAA295" d="M19,17c0-0.553-0.896-1-2-1H6V2h11c1.104,0,2,0.447,2,1V17z"/>
		<path fill="#F77360" d="M5,1C4.448,1,4,1.448,4,2v26c0,0.553,0.448,1,1,1s1-0.447,1-1V2C6,1.448,5.552,1,5,1z"/>
		<circle fill="#F5452B" cx="5" cy="28" r="1"/>
	</g>
	<rect fill="none" width="30" height="30"/>
</g>
</svg>
