<?xml version="1.0" encoding="utf-8"?>
<!-- Generator: Adobe Illustrator 17.1.0, SVG Export Plug-In . SVG Version: 6.00 Build 0)  -->
<!DOCTYPE svg PUBLIC "-//W3C//DTD SVG 1.1//EN" "http://www.w3.org/Graphics/SVG/1.1/DTD/svg11.dtd">
<svg version="1.1" id="Layer_1" xmlns="http://www.w3.org/2000/svg" xmlns:xlink="http://www.w3.org/1999/xlink" x="0px" y="0px"
	 viewBox="0 0 30 30" enable-background="new 0 0 30 30" xml:space="preserve">
<g>
	<path fill="#6386C0" d="M17.3,25.7c-0.4-0.4-0.4-1,0-1.4l2.8-2.8c-0.4-0.6-0.7-1.2-0.9-1.9c-0.6-0.5-0.7-1.2-0.2-1.9
		c0.1-1.8,1-3.4,2.4-4.4C21.8,11.8,22,10.3,22,9c0-3.9-3.1-7-7-7c-3.9,0-7,3.1-7,7c0,2.8,0.8,6.3,2.8,8.4C13,19.8,8,21,5,22
		c-1.6,0.5-3,1.3-3,3v1.5C2,27.3,2.7,28,3.5,28h16.1L17.3,25.7z"/>
	<path opacity="0.1" d="M20.1,21.5c-0.4-0.6-0.7-1.2-0.9-1.9c-0.6-0.5-0.7-1.2-0.2-1.9c0,0,0-0.1,0-0.1c-1.1,1.1-2.5,1.7-4,1.7
		c-1.6,0-3.1-0.7-4.3-2c0,0,0.1,0.1,0.1,0.1c1.7,1.8-0.9,3-3.6,3.9c0.6,0.5,2.4,2.6,7.7,2.6c1.2,0,2.2-0.1,3-0.3L20.1,21.5z"/>
	<g>
		<path fill="#FFD43D" d="M25,13c-2.8,0-5,2.2-5,5c0,1,0.3,2,0.8,2.8l1.5-1.5c0.2-0.2,0.4-0.3,0.7-0.3c0.1,0,0.3,0,0.4,0.1
			c0.4,0.2,0.6,0.5,0.6,0.9v2.9c0.3,0.1,0.7,0.1,1,0.1c2.8,0,5-2.2,5-5S27.8,13,25,13z"/>
	</g>
	<path fill="#FFE99E" d="M27.4,22.4c0.9-0.5,1.6-1.2,2-2l-6.8-6.8c-0.9,0.5-1.6,1.2-2,2L27.4,22.4z"/>
	<path fill="#EDA133" d="M23.7,17.3v-0.6c0.3,0,0.5,0,0.6-0.1c0.2,0,0.3-0.1,0.4-0.2c0.1-0.1,0.1-0.2,0.2-0.3c0-0.1,0-0.1,0-0.2h0.8
		v4.6h-0.9v-3.2H23.7z"/>
	<path fill="#6EAD26" d="M25,23h-2v-3l-5,5l5,5v-3h2c2.8,0,5-2.2,5-5c0-0.7-0.2-1.4-0.4-2C28.8,21.8,27,23,25,23z"/>
	<path opacity="0.1" d="M30,22c0-0.7-0.2-1.4-0.4-2c-0.8,1.8-2.5,3-4.6,3h4.9C30,22.7,30,22.3,30,22z"/>
	<path fill="#EDA133" d="M25,13.7c-2.4,0-4.3,1.9-4.3,4.3c0,0.8,0.2,1.6,0.6,2.2l0.7-0.7c-0.2-0.5-0.4-1-0.4-1.5
		c0-1.8,1.5-3.3,3.3-3.3s3.3,1.5,3.3,3.3s-1.5,3.3-3.3,3.3c-0.4,0-0.7-0.1-1-0.2v1c0.3,0.1,0.7,0.1,1,0.1c2.4,0,4.3-1.9,4.3-4.3
		C29.3,15.6,27.4,13.7,25,13.7z"/>
</g>
<rect fill="none" width="30" height="30"/>
</svg>
