<?xml version="1.0" encoding="utf-8"?>
<!-- Generator: Adobe Illustrator 17.1.0, SVG Export Plug-In . SVG Version: 6.00 Build 0)  -->
<!DOCTYPE svg PUBLIC "-//W3C//DTD SVG 1.1//EN" "http://www.w3.org/Graphics/SVG/1.1/DTD/svg11.dtd">
<svg version="1.1" id="Layer_1" xmlns="http://www.w3.org/2000/svg" xmlns:xlink="http://www.w3.org/1999/xlink" x="0px" y="0px"
	 viewBox="0 0 30 30" enable-background="new 0 0 30 30" xml:space="preserve">
<g>
	<g>
		<path fill="#FFD43D" d="M6,16.5C6,17.3,6.7,18,7.5,18h19c0.8,0,1.5-0.7,1.5-1.5V13H6V16.5z"/>
		<path fill="#6386C0" d="M26.5,3h-19C6.7,3,6,3.7,6,4.5V8h22V4.5C28,3.7,27.3,3,26.5,3z"/>
		<rect x="6" y="8" fill="#D8E1EF" width="22" height="5"/>
	</g>
	<g>
		<path fill="#FFFFFF" d="M24,26.5c0,0.8-0.7,1.5-1.5,1.5h-19C2.7,28,2,27.3,2,26.5v-12C2,13.7,2.7,13,3.5,13h19
			c0.8,0,1.5,0.7,1.5,1.5V26.5z"/>
		<path fill="#9F9F9F" d="M22.5,13c0.8,0,1.5,0.7,1.5,1.5v12c0,0.8-0.7,1.5-1.5,1.5h-19C2.7,28,2,27.3,2,26.5v-12
			C2,13.7,2.7,13,3.5,13H22.5 M22.5,12h-19C2.1,12,1,13.1,1,14.5v12C1,27.9,2.1,29,3.5,29h19c1.4,0,2.5-1.1,2.5-2.5v-12
			C25,13.1,23.9,12,22.5,12L22.5,12z"/>
	</g>
	<circle fill="#F5452B" cx="9.5" cy="20.5" r="4.5"/>
	<circle fill="#FFD43D" cx="16.5" cy="20.5" r="4.5"/>
	<path fill="#EDA133" d="M12,20.5c0,1.1,0.4,2.1,1,2.8c0.6-0.8,1-1.8,1-2.8s-0.4-2.1-1-2.8C12.4,18.4,12,19.4,12,20.5z"/>
</g>
<rect fill="none" width="30" height="30"/>
</svg>
