<?xml version="1.0" encoding="utf-8"?>
<!-- Generator: Adobe Illustrator 14.0.0, SVG Export Plug-In . SVG Version: 6.00 Build 43363)  -->
<!DOCTYPE svg PUBLIC "-//W3C//DTD SVG 1.1//EN" "http://www.w3.org/Graphics/SVG/1.1/DTD/svg11.dtd">
<svg version="1.1" id="Layer_1" xmlns="http://www.w3.org/2000/svg" xmlns:xlink="http://www.w3.org/1999/xlink" x="0px" y="0px"
	 width="30px" height="30px" viewBox="0 0 30 30" enable-background="new 0 0 30 30" xml:space="preserve">
<g>
	<g>
		<path fill="#6EAD26" d="M25,26.5c0,0.828-0.672,1.5-1.5,1.5h-17C5.671,28,5,27.328,5,26.5v-23C5,2.671,5.671,2,6.5,2h17
			C24.328,2,25,2.671,25,3.5V26.5z"/>
		<path fill="#404040" d="M7,7c0,0.552-0.448,1-1,1H4C3.448,8,3,7.552,3,7l0,0c0-0.552,0.448-1,1-1h2C6.552,6,7,6.448,7,7L7,7z"/>
		<path fill="#404040" d="M7,23c0,0.553-0.448,1-1,1H4c-0.552,0-1-0.447-1-1l0,0c0-0.553,0.448-1,1-1h2C6.552,22,7,22.447,7,23L7,23
			z"/>
		<path fill="#404040" d="M7,19c0,0.553-0.448,1-1,1H4c-0.552,0-1-0.447-1-1l0,0c0-0.553,0.448-1,1-1h2C6.552,18,7,18.447,7,19L7,19
			z"/>
		<path fill="#404040" d="M7,15c0,0.553-0.448,1-1,1H4c-0.552,0-1-0.447-1-1l0,0c0-0.553,0.448-1,1-1h2C6.552,14,7,14.447,7,15L7,15
			z"/>
		<path fill="#404040" d="M7,11c0,0.553-0.448,1-1,1H4c-0.552,0-1-0.447-1-1l0,0c0-0.553,0.448-1,1-1h2C6.552,10,7,10.447,7,11L7,11
			z"/>
		<path fill="#DBEAC9" d="M21,13v-0.5c0-1.933-1.567-3.5-3.5-3.5H16V7h-2v2h-1.5C10.567,9,9,10.567,9,12.5
			c0,1.933,1.567,3.5,3.5,3.5H14v3h-1.5c-0.828,0-1.5-0.672-1.5-1.5V17H9v0.5c0,1.934,1.567,3.5,3.5,3.5H14v2h2v-2h1.5
			c1.933,0,3.5-1.567,3.5-3.5c0-1.933-1.567-3.5-3.5-3.5H16v-3h1.5c0.828,0,1.5,0.672,1.5,1.5V13H21z M17.5,16
			c0.828,0,1.5,0.672,1.5,1.5S18.328,19,17.5,19H16v-3H17.5z M14,14h-1.5c-0.828,0-1.5-0.672-1.5-1.5s0.672-1.5,1.5-1.5H14V14z"/>
	</g>
	<rect fill="none" width="30" height="30"/>
</g>
</svg>
