<?xml version="1.0" encoding="utf-8"?>
<!-- Generator: Adobe Illustrator 17.1.0, SVG Export Plug-In . SVG Version: 6.00 Build 0)  -->
<!DOCTYPE svg PUBLIC "-//W3C//DTD SVG 1.1//EN" "http://www.w3.org/Graphics/SVG/1.1/DTD/svg11.dtd">
<svg version="1.1" id="Layer_1" xmlns="http://www.w3.org/2000/svg" xmlns:xlink="http://www.w3.org/1999/xlink" x="0px" y="0px"
	 viewBox="0 0 30 30" enable-background="new 0 0 30 30" xml:space="preserve">
<g>
	<path fill="#6386C0" d="M15.3,24.7c-0.4-0.4-0.4-1,0-1.4l6-6c0.2-0.2,0.4-0.3,0.7-0.3c0.1,0,0.3,0,0.4,0.1c0.4,0.2,0.6,0.5,0.6,0.9
		v2h1c0.4,0,0.7-0.1,1-0.3v-3.4v-1.1v-0.1v-1V12L15,2H6.5C5.7,2,5,2.7,5,3.5v23C5,27.3,5.7,28,6.5,28h12.1L15.3,24.7z"/>
	<polygon fill="#B1C2DF" points="15,2 15,12 25,12 	"/>
	<path fill="#6EAD26" d="M25,15.1L25,15.1c1.2,0.5,2,1.6,2,2.9c0,1.7-1.3,3-3,3h-2v-3l-6,6l6,6v-3h2c3.3,0,6-2.7,6-6
		C30,18,27.8,15.6,25,15.1z"/>
	<path opacity="0.1" d="M21.3,17.3c0.2-0.2,0.4-0.3,0.7-0.3c0.1,0,0.3,0,0.4,0.1c0.4,0.2,0.6,0.5,0.6,0.9v2l0,0h1
		c0.4,0,0.7-0.1,1-0.3v-3.4c0,0,0,0,0,0v-1.1v-0.1v-1c0,0,0,0,0,0V12H15l5.8,5.8L21.3,17.3z"/>
</g>
<rect fill="none" width="30" height="30"/>
</svg>
